<mxfile host="app.diagrams.net" modified="2024-05-11T01:43:00.722Z" agent="Mozilla/5.0 (X11; Linux x86_64) AppleWebKit/537.36 (KHTML, like Gecko) Chrome/124.0.0.0 Safari/537.36" version="24.3.1" etag="I10IjaR1ULppDcVvJsPc" type="github">
  <diagram name="Page-1" id="4hofbNgoeAtavMJjyCWj">
    <mxGraphModel>
      <root>
        <mxCell id="0" />
        <mxCell id="1" parent="0" />
      </root>
    </mxGraphModel>
  </diagram>
</mxfile>
